<svg id="visual" viewBox="0 0 960 540" width="960" height="540" xmlns="http://www.w3.org/2000/svg" xmlns:xlink="http://www.w3.org/1999/xlink" version="1.1"><g stroke-width="1" stroke-linejoin="bevel"><path d="M457.4 304.6L445.4 377.7L517.6 327.6Z" fill="#5d37ad" stroke="#5d37ad"></path><path d="M445.4 377.7L499.6 418.7L517.6 327.6Z" fill="#9d1e9d" stroke="#9d1e9d"></path><path d="M578.9 408.7L589.9 332.6L517.6 327.6Z" fill="#9d1e9d" stroke="#9d1e9d"></path><path d="M517.6 327.6L552.6 198.4L457.4 304.6Z" fill="#b10993" stroke="#b10993"></path><path d="M457.4 304.6L356.1 351.7L445.4 377.7Z" fill="#343db0" stroke="#343db0"></path><path d="M445.4 377.7L441.4 461.9L499.6 418.7Z" fill="#9224a1" stroke="#9224a1"></path><path d="M499.6 418.7L578.9 408.7L517.6 327.6Z" fill="#b10993" stroke="#b10993"></path><path d="M381.1 454.9L441.4 461.9L445.4 377.7Z" fill="#343db0" stroke="#343db0"></path><path d="M499.6 418.7L489.6 479.9L578.9 408.7Z" fill="#9224a1" stroke="#9224a1"></path><path d="M441.4 461.9L489.6 479.9L499.6 418.7Z" fill="#b10993" stroke="#b10993"></path><path d="M589.9 332.6L589.9 263.4L517.6 327.6Z" fill="#093fb1" stroke="#093fb1"></path><path d="M552.6 198.4L411.4 216.4L457.4 304.6Z" fill="#9d1e9d" stroke="#9d1e9d"></path><path d="M457.4 304.6L338.1 251.4L356.1 351.7Z" fill="#5d37ad" stroke="#5d37ad"></path><path d="M356.1 351.7L381.1 454.9L445.4 377.7Z" fill="#5d37ad" stroke="#5d37ad"></path><path d="M414.4 540L516.6 540L489.6 479.9Z" fill="#9d1e9d" stroke="#9d1e9d"></path><path d="M338.1 251.4L321.1 338.6L356.1 351.7Z" fill="#7a2fa8" stroke="#7a2fa8"></path><path d="M356.1 351.7L296.8 379.7L381.1 454.9Z" fill="#b10993" stroke="#b10993"></path><path d="M589.9 263.4L552.6 198.4L517.6 327.6Z" fill="#9224a1" stroke="#9224a1"></path><path d="M411.4 216.4L338.1 251.4L457.4 304.6Z" fill="#6c33ab" stroke="#6c33ab"></path><path d="M243.8 298.6L296.8 379.7L321.1 338.6Z" fill="#9224a1" stroke="#9224a1"></path><path d="M321.1 338.6L296.8 379.7L356.1 351.7Z" fill="#4b3aaf" stroke="#4b3aaf"></path><path d="M414.4 540L489.6 479.9L441.4 461.9Z" fill="#872aa5" stroke="#872aa5"></path><path d="M489.6 479.9L626.9 475.9L578.9 408.7Z" fill="#4b3aaf" stroke="#4b3aaf"></path><path d="M516.6 540L626.9 475.9L489.6 479.9Z" fill="#9d1e9d" stroke="#9d1e9d"></path><path d="M578.9 408.7L677.2 326.6L589.9 332.6Z" fill="#7a2fa8" stroke="#7a2fa8"></path><path d="M589.9 332.6L677.2 326.6L589.9 263.4Z" fill="#872aa5" stroke="#872aa5"></path><path d="M703.2 361.7L677.2 326.6L578.9 408.7Z" fill="#093fb1" stroke="#093fb1"></path><path d="M595.9 136.3L546.6 138.3L552.6 198.4Z" fill="#872aa5" stroke="#872aa5"></path><path d="M337.1 540L414.4 540L381.1 454.9Z" fill="#a81598" stroke="#a81598"></path><path d="M381.1 454.9L414.4 540L441.4 461.9Z" fill="#a81598" stroke="#a81598"></path><path d="M626.9 475.9L662.2 444.9L578.9 408.7Z" fill="#872aa5" stroke="#872aa5"></path><path d="M296.8 379.7L290.8 445.9L381.1 454.9Z" fill="#7a2fa8" stroke="#7a2fa8"></path><path d="M552.6 198.4L433.4 132.3L411.4 216.4Z" fill="#7a2fa8" stroke="#7a2fa8"></path><path d="M411.4 216.4L330.1 146.3L338.1 251.4Z" fill="#5d37ad" stroke="#5d37ad"></path><path d="M595.9 136.3L552.6 198.4L589.9 263.4Z" fill="#6c33ab" stroke="#6c33ab"></path><path d="M552.6 198.4L546.6 138.3L433.4 132.3Z" fill="#343db0" stroke="#343db0"></path><path d="M662.2 444.9L703.2 361.7L578.9 408.7Z" fill="#a81598" stroke="#a81598"></path><path d="M727.2 206.4L595.9 136.3L589.9 263.4Z" fill="#4b3aaf" stroke="#4b3aaf"></path><path d="M241.8 258.4L243.8 298.6L338.1 251.4Z" fill="#5d37ad" stroke="#5d37ad"></path><path d="M338.1 251.4L243.8 298.6L321.1 338.6Z" fill="#4b3aaf" stroke="#4b3aaf"></path><path d="M171.5 390.7L201.5 464.9L290.8 445.9Z" fill="#6c33ab" stroke="#6c33ab"></path><path d="M290.8 445.9L337.1 540L381.1 454.9Z" fill="#a81598" stroke="#a81598"></path><path d="M727.2 206.4L589.9 263.4L677.2 326.6Z" fill="#872aa5" stroke="#872aa5"></path><path d="M546.6 138.3L449.4 76.1L433.4 132.3Z" fill="#6c33ab" stroke="#6c33ab"></path><path d="M433.4 132.3L330.1 146.3L411.4 216.4Z" fill="#6c33ab" stroke="#6c33ab"></path><path d="M330.1 146.3L241.8 258.4L338.1 251.4Z" fill="#9d1e9d" stroke="#9d1e9d"></path><path d="M516.6 540L636.9 540L626.9 475.9Z" fill="#7a2fa8" stroke="#7a2fa8"></path><path d="M626.9 475.9L675.2 540L662.2 444.9Z" fill="#5d37ad" stroke="#5d37ad"></path><path d="M662.2 444.9L758.5 410.7L703.2 361.7Z" fill="#5d37ad" stroke="#5d37ad"></path><path d="M533.6 51.1L449.4 76.1L546.6 138.3Z" fill="#9224a1" stroke="#9224a1"></path><path d="M433.4 132.3L340.1 76.1L330.1 146.3Z" fill="#a81598" stroke="#a81598"></path><path d="M636.9 540L675.2 540L626.9 475.9Z" fill="#9d1e9d" stroke="#9d1e9d"></path><path d="M795.5 277.6L727.2 206.4L677.2 326.6Z" fill="#b10993" stroke="#b10993"></path><path d="M758.5 473.9L758.5 410.7L662.2 444.9Z" fill="#9224a1" stroke="#9224a1"></path><path d="M703.2 361.7L795.5 277.6L677.2 326.6Z" fill="#4b3aaf" stroke="#4b3aaf"></path><path d="M725.2 125.3L627.9 94.1L595.9 136.3Z" fill="#343db0" stroke="#343db0"></path><path d="M595.9 136.3L533.6 51.1L546.6 138.3Z" fill="#6c33ab" stroke="#6c33ab"></path><path d="M627.9 94.1L533.6 51.1L595.9 136.3Z" fill="#b10993" stroke="#b10993"></path><path d="M171.5 390.7L290.8 445.9L296.8 379.7Z" fill="#343db0" stroke="#343db0"></path><path d="M290.8 445.9L233.8 540L337.1 540Z" fill="#093fb1" stroke="#093fb1"></path><path d="M171.5 390.7L296.8 379.7L243.8 298.6Z" fill="#7a2fa8" stroke="#7a2fa8"></path><path d="M449.4 76.1L340.1 76.1L433.4 132.3Z" fill="#5d37ad" stroke="#5d37ad"></path><path d="M228.8 127.3L170.5 239.4L241.8 258.4Z" fill="#7a2fa8" stroke="#7a2fa8"></path><path d="M404.4 0L340.1 76.1L449.4 76.1Z" fill="#4b3aaf" stroke="#4b3aaf"></path><path d="M170.5 288.6L171.5 390.7L243.8 298.6Z" fill="#4b3aaf" stroke="#4b3aaf"></path><path d="M675.2 540L758.5 473.9L662.2 444.9Z" fill="#4b3aaf" stroke="#4b3aaf"></path><path d="M170.5 239.4L170.5 288.6L241.8 258.4Z" fill="#4b3aaf" stroke="#4b3aaf"></path><path d="M241.8 258.4L170.5 288.6L243.8 298.6Z" fill="#b10993" stroke="#b10993"></path><path d="M201.5 464.9L233.8 540L290.8 445.9Z" fill="#6c33ab" stroke="#6c33ab"></path><path d="M228.8 127.3L241.8 258.4L330.1 146.3Z" fill="#9d1e9d" stroke="#9d1e9d"></path><path d="M758.5 410.7L795.5 277.6L703.2 361.7Z" fill="#9224a1" stroke="#9224a1"></path><path d="M727.2 206.4L725.2 125.3L595.9 136.3Z" fill="#9224a1" stroke="#9224a1"></path><path d="M843.7 385.7L795.5 277.6L758.5 410.7Z" fill="#343db0" stroke="#343db0"></path><path d="M258.8 60.1L228.8 127.3L330.1 146.3Z" fill="#093fb1" stroke="#093fb1"></path><path d="M807.5 120.3L725.2 125.3L727.2 206.4Z" fill="#7a2fa8" stroke="#7a2fa8"></path><path d="M616.9 0L541.6 0L533.6 51.1Z" fill="#343db0" stroke="#343db0"></path><path d="M201.5 464.9L200.5 540L233.8 540Z" fill="#093fb1" stroke="#093fb1"></path><path d="M112.3 479.9L200.5 540L201.5 464.9Z" fill="#9224a1" stroke="#9224a1"></path><path d="M795.5 277.6L798.5 221.4L727.2 206.4Z" fill="#9d1e9d" stroke="#9d1e9d"></path><path d="M616.9 0L533.6 51.1L627.9 94.1Z" fill="#9d1e9d" stroke="#9d1e9d"></path><path d="M533.6 51.1L541.6 0L449.4 76.1Z" fill="#9224a1" stroke="#9224a1"></path><path d="M541.6 0L404.4 0L449.4 76.1Z" fill="#872aa5" stroke="#872aa5"></path><path d="M340.1 76.1L258.8 60.1L330.1 146.3Z" fill="#7a2fa8" stroke="#7a2fa8"></path><path d="M404.4 0L381.1 0L340.1 76.1Z" fill="#093fb1" stroke="#093fb1"></path><path d="M253.8 0L258.8 60.1L340.1 76.1Z" fill="#b10993" stroke="#b10993"></path><path d="M94.3 160.3L110.3 274.6L170.5 239.4Z" fill="#9224a1" stroke="#9224a1"></path><path d="M838.7 438.9L843.7 385.7L758.5 410.7Z" fill="#7a2fa8" stroke="#7a2fa8"></path><path d="M795.5 277.6L888.7 217.4L798.5 221.4Z" fill="#b10993" stroke="#b10993"></path><path d="M675.2 540L791.5 540L758.5 473.9Z" fill="#9d1e9d" stroke="#9d1e9d"></path><path d="M758.5 473.9L838.7 438.9L758.5 410.7Z" fill="#7a2fa8" stroke="#7a2fa8"></path><path d="M682.2 0L616.9 0L627.9 94.1Z" fill="#5d37ad" stroke="#5d37ad"></path><path d="M146.5 163.3L170.5 239.4L228.8 127.3Z" fill="#a81598" stroke="#a81598"></path><path d="M170.5 239.4L110.3 274.6L170.5 288.6Z" fill="#9224a1" stroke="#9224a1"></path><path d="M170.5 288.6L74.3 365.7L171.5 390.7Z" fill="#093fb1" stroke="#093fb1"></path><path d="M171.5 390.7L112.3 479.9L201.5 464.9Z" fill="#4b3aaf" stroke="#4b3aaf"></path><path d="M791.5 540L838.7 438.9L758.5 473.9Z" fill="#093fb1" stroke="#093fb1"></path><path d="M144.5 80.1L146.5 163.3L228.8 127.3Z" fill="#6c33ab" stroke="#6c33ab"></path><path d="M792.5 68.1L730.2 62.1L725.2 125.3Z" fill="#a81598" stroke="#a81598"></path><path d="M725.2 125.3L730.2 62.1L627.9 94.1Z" fill="#6c33ab" stroke="#6c33ab"></path><path d="M74.3 365.7L112.3 479.9L171.5 390.7Z" fill="#5d37ad" stroke="#5d37ad"></path><path d="M798.5 221.4L807.5 120.3L727.2 206.4Z" fill="#b10993" stroke="#b10993"></path><path d="M894.7 140.3L807.5 120.3L798.5 221.4Z" fill="#872aa5" stroke="#872aa5"></path><path d="M792.5 0L682.2 0L730.2 62.1Z" fill="#b10993" stroke="#b10993"></path><path d="M730.2 62.1L682.2 0L627.9 94.1Z" fill="#b10993" stroke="#b10993"></path><path d="M110.3 274.6L74.3 365.7L170.5 288.6Z" fill="#7a2fa8" stroke="#7a2fa8"></path><path d="M51.3 255.4L74.3 365.7L110.3 274.6Z" fill="#6c33ab" stroke="#6c33ab"></path><path d="M960 416.7L884.7 329.6L843.7 385.7Z" fill="#b10993" stroke="#b10993"></path><path d="M843.7 385.7L884.7 329.6L795.5 277.6Z" fill="#9224a1" stroke="#9224a1"></path><path d="M381.1 0L253.8 0L340.1 76.1Z" fill="#872aa5" stroke="#872aa5"></path><path d="M258.8 60.1L144.5 80.1L228.8 127.3Z" fill="#872aa5" stroke="#872aa5"></path><path d="M0 540L109.3 540L112.3 479.9Z" fill="#343db0" stroke="#343db0"></path><path d="M112.3 479.9L109.3 540L200.5 540Z" fill="#6c33ab" stroke="#6c33ab"></path><path d="M900.7 107.1L792.5 68.1L807.5 120.3Z" fill="#093fb1" stroke="#093fb1"></path><path d="M807.5 120.3L792.5 68.1L725.2 125.3Z" fill="#9d1e9d" stroke="#9d1e9d"></path><path d="M144.5 80.1L94.3 160.3L146.5 163.3Z" fill="#a81598" stroke="#a81598"></path><path d="M146.5 163.3L94.3 160.3L170.5 239.4Z" fill="#a81598" stroke="#a81598"></path><path d="M176.5 0L144.5 80.1L258.8 60.1Z" fill="#6c33ab" stroke="#6c33ab"></path><path d="M884.7 329.6L888.7 217.4L795.5 277.6Z" fill="#872aa5" stroke="#872aa5"></path><path d="M94.3 160.3L51.3 255.4L110.3 274.6Z" fill="#093fb1" stroke="#093fb1"></path><path d="M74.3 365.7L0 462.9L112.3 479.9Z" fill="#093fb1" stroke="#093fb1"></path><path d="M791.5 540L888.7 540L838.7 438.9Z" fill="#a81598" stroke="#a81598"></path><path d="M838.7 438.9L960 416.7L843.7 385.7Z" fill="#a81598" stroke="#a81598"></path><path d="M900.7 107.1L894.7 140.3L960 172.3Z" fill="#a81598" stroke="#a81598"></path><path d="M253.8 0L176.5 0L258.8 60.1Z" fill="#343db0" stroke="#343db0"></path><path d="M144.5 80.1L84.3 86.1L94.3 160.3Z" fill="#9224a1" stroke="#9224a1"></path><path d="M894.7 140.3L888.7 217.4L960 172.3Z" fill="#7a2fa8" stroke="#7a2fa8"></path><path d="M888.7 217.4L894.7 140.3L798.5 221.4Z" fill="#a81598" stroke="#a81598"></path><path d="M840.7 0L792.5 0L792.5 68.1Z" fill="#343db0" stroke="#343db0"></path><path d="M792.5 68.1L792.5 0L730.2 62.1Z" fill="#5d37ad" stroke="#5d37ad"></path><path d="M96.3 0L84.3 86.1L144.5 80.1Z" fill="#5d37ad" stroke="#5d37ad"></path><path d="M94.3 160.3L0 207.4L51.3 255.4Z" fill="#872aa5" stroke="#872aa5"></path><path d="M0 207.4L0 340.6L51.3 255.4Z" fill="#872aa5" stroke="#872aa5"></path><path d="M51.3 255.4L0 340.6L74.3 365.7Z" fill="#b10993" stroke="#b10993"></path><path d="M0 340.6L0 363.7L74.3 365.7Z" fill="#9224a1" stroke="#9224a1"></path><path d="M960 272.6L888.7 217.4L884.7 329.6Z" fill="#6c33ab" stroke="#6c33ab"></path><path d="M894.7 140.3L900.7 107.1L807.5 120.3Z" fill="#093fb1" stroke="#093fb1"></path><path d="M960 459.9L960 416.7L838.7 438.9Z" fill="#5d37ad" stroke="#5d37ad"></path><path d="M960 416.7L960 272.6L884.7 329.6Z" fill="#093fb1" stroke="#093fb1"></path><path d="M0 363.7L0 462.9L74.3 365.7Z" fill="#b10993" stroke="#b10993"></path><path d="M0 158.3L0 207.4L94.3 160.3Z" fill="#a81598" stroke="#a81598"></path><path d="M888.7 540L960 459.9L838.7 438.9Z" fill="#b10993" stroke="#b10993"></path><path d="M900.7 107.1L840.7 0L792.5 68.1Z" fill="#093fb1" stroke="#093fb1"></path><path d="M960 272.6L960 206.4L888.7 217.4Z" fill="#093fb1" stroke="#093fb1"></path><path d="M900.7 107.1L960 66.1L840.7 0Z" fill="#9224a1" stroke="#9224a1"></path><path d="M0 70.1L0 158.3L84.3 86.1Z" fill="#7a2fa8" stroke="#7a2fa8"></path><path d="M84.3 86.1L0 158.3L94.3 160.3Z" fill="#343db0" stroke="#343db0"></path><path d="M176.5 0L96.3 0L144.5 80.1Z" fill="#b10993" stroke="#b10993"></path><path d="M960 206.4L960 172.3L888.7 217.4Z" fill="#343db0" stroke="#343db0"></path><path d="M0 462.9L0 540L112.3 479.9Z" fill="#5d37ad" stroke="#5d37ad"></path><path d="M888.7 540L960 540L960 459.9Z" fill="#9d1e9d" stroke="#9d1e9d"></path><path d="M96.3 0L0 70.1L84.3 86.1Z" fill="#7a2fa8" stroke="#7a2fa8"></path><path d="M960 172.3L960 66.1L900.7 107.1Z" fill="#5d37ad" stroke="#5d37ad"></path><path d="M96.3 0L0 0L0 70.1Z" fill="#9d1e9d" stroke="#9d1e9d"></path><path d="M960 66.1L960 0L840.7 0Z" fill="#4b3aaf" stroke="#4b3aaf"></path></g></svg>